<svg width="563" height="522" viewBox="0 0 563 522" fill="none" xmlns="http://www.w3.org/2000/svg">
<rect width="563" height="522" fill="white"/>
<path d="M223.656 257.523C223.656 228.716 187.968 205.152 143.91 205.152C99.852 205.152 64.1638 228.716 64.1638 257.523V260.606C64.1638 291.219 95.4521 316 143.91 316C192.798 316 223.656 291.219 223.656 260.606V257.523Z" fill="#2D3277"/>
<path d="M220.605 257.503C220.605 284.699 186.286 306.771 143.929 306.771C101.573 306.771 67.2534 284.699 67.2534 257.503C67.2534 230.306 101.592 208.235 143.929 208.235C186.266 208.235 220.605 230.306 220.605 257.503Z" fill="#FFD100"/>
<path d="M118.469 241.971C118.469 241.971 117.667 242.835 118.156 243.483C119.368 245.034 123.103 245.918 126.897 245.073C129.146 244.563 132.02 242.246 134.817 240.027C137.48 237.561 140.541 235.569 143.871 234.136C145.996 233.355 148.317 233.293 150.481 233.959C152.669 234.783 154.7 235.978 156.484 237.494C161.744 241.421 182.825 259.938 186.482 263.139C197.34 258.425 208.632 254.788 220.195 252.28C218.65 242.854 212.901 234.155 204.179 227.047C192.035 232.172 177.173 234.902 162.644 227.734C157.726 225.484 152.403 224.262 147 224.141C135.482 224.416 130.476 229.423 125.196 234.725L118.469 241.971Z" fill="white"/>
<path d="M185.621 265.24C185.406 265.024 160.805 243.444 155.252 239.242C153.313 237.516 150.926 236.379 148.368 235.962C147.263 235.869 146.151 235.975 145.083 236.276C141.798 237.524 138.76 239.346 136.107 241.657C132.998 244.131 130.065 246.487 127.347 247.096C124.057 247.778 120.633 247.263 117.686 245.643C116.993 245.222 116.436 244.608 116.083 243.876C115.885 243.313 115.863 242.703 116.02 242.127C116.178 241.551 116.506 241.038 116.963 240.655L123.729 233.292C124.511 232.506 125.313 231.701 126.134 230.935C124.042 231.243 121.977 231.709 119.955 232.33C117.621 233.104 115.194 233.56 112.739 233.684C110.269 233.431 107.814 233.044 105.386 232.526C98.6587 230.782 92.111 228.402 85.8309 225.417C76.1315 232.644 69.6978 241.637 67.8401 251.554C69.209 251.927 71.4382 252.594 72.3769 252.791C94.1809 257.66 100.986 262.609 102.218 263.728C102.941 262.908 103.839 262.263 104.846 261.843C105.854 261.422 106.943 261.237 108.031 261.302C109.12 261.366 110.18 261.678 111.131 262.214C112.082 262.75 112.899 263.496 113.521 264.396C114.99 263.195 116.828 262.543 118.723 262.55C119.782 262.566 120.831 262.751 121.832 263.1C122.8 263.405 123.693 263.913 124.451 264.59C125.21 265.267 125.817 266.097 126.232 267.027C127.185 266.596 128.218 266.375 129.263 266.379C130.511 266.398 131.742 266.672 132.881 267.184C134.454 267.941 135.73 269.205 136.506 270.774C137.282 272.343 137.513 274.128 137.163 275.844H138.043C139.535 275.851 140.999 276.245 142.295 276.987C143.59 277.729 144.673 278.795 145.438 280.081C146.203 281.366 146.625 282.829 146.662 284.326C146.699 285.823 146.351 287.305 145.65 288.627C147.91 289.983 150.508 290.665 153.14 290.591C153.802 290.591 154.456 290.454 155.062 290.187C155.668 289.92 156.212 289.529 156.66 289.04C156.875 288.745 157.11 288.372 156.894 288.117L150.735 281.263C150.735 281.263 149.737 280.301 150.07 279.928C150.402 279.555 151.028 280.085 151.478 280.458C154.606 283.09 158.439 287.056 158.439 287.056C158.439 287.056 158.752 287.606 160.16 287.842C161.006 287.995 161.875 287.972 162.712 287.777C163.549 287.581 164.338 287.215 165.029 286.703C165.42 286.383 165.774 286.021 166.085 285.623V285.623C166.462 285.034 166.643 284.339 166.601 283.64C166.558 282.941 166.296 282.274 165.851 281.735L158.674 273.645C158.674 273.645 157.638 272.682 157.99 272.309C158.342 271.936 158.967 272.466 159.417 272.839C161.685 274.803 164.893 278.004 167.982 281.028C169.008 281.722 170.226 282.073 171.462 282.031C172.698 281.989 173.89 281.555 174.866 280.792C175.669 280.349 176.334 279.69 176.787 278.889C177.239 278.088 177.461 277.176 177.427 276.256C177.265 275.112 176.729 274.055 175.902 273.252L166.124 263.434C166.124 263.434 165.088 262.55 165.46 262.098C165.831 261.647 166.437 262.255 166.868 262.629C169.996 265.26 178.464 273.036 178.464 273.036C179.454 273.694 180.619 274.035 181.806 274.014C182.994 273.993 184.146 273.611 185.113 272.918C185.763 272.549 186.311 272.02 186.704 271.382C187.097 270.743 187.323 270.015 187.361 269.266C187.384 268.507 187.239 267.754 186.938 267.058C186.637 266.362 186.188 265.742 185.621 265.24V265.24Z" fill="white"/>
<path d="M138.024 277.808C136.873 277.973 135.736 278.222 134.621 278.554C134.504 278.554 134.621 277.867 134.856 277.513C135.09 277.16 137.007 271.112 132.138 269.01C131.045 268.421 129.793 268.202 128.566 268.386C127.34 268.57 126.205 269.147 125.332 270.032C125.117 270.248 125.02 270.228 125 270.032C124.976 268.902 124.599 267.808 123.922 266.906C123.244 266.004 122.301 265.338 121.226 265.005C119.703 264.53 118.067 264.565 116.565 265.103C115.063 265.641 113.776 266.654 112.895 267.989C112.793 266.955 112.394 265.974 111.746 265.163C111.098 264.353 110.23 263.75 109.246 263.426C108.263 263.102 107.207 263.072 106.208 263.34C105.208 263.608 104.307 264.161 103.615 264.934C102.923 265.706 102.469 266.663 102.309 267.69C102.149 268.717 102.289 269.768 102.713 270.716C103.137 271.663 103.826 272.467 104.696 273.029C105.566 273.591 106.581 273.887 107.615 273.88C108.997 273.883 110.325 273.34 111.311 272.368C111.324 272.399 111.331 272.433 111.331 272.466C111.331 272.5 111.324 272.534 111.311 272.565C110.955 274.222 111.203 275.952 112.01 277.441C112.818 278.929 114.131 280.077 115.711 280.675C116.558 281.023 117.481 281.141 118.387 281.017C119.293 280.893 120.151 280.531 120.874 279.968C121.304 279.653 121.363 279.791 121.304 280.184C121.128 281.421 121.304 284.111 125.059 285.603C125.98 286.049 127.019 286.189 128.025 286.002C129.03 285.815 129.95 285.311 130.651 284.563C131.14 284.111 131.258 284.189 131.297 284.857C131.354 286.179 131.797 287.455 132.57 288.526C133.344 289.598 134.413 290.418 135.646 290.884C136.879 291.35 138.222 291.443 139.507 291.15C140.792 290.857 141.963 290.191 142.874 289.236C143.786 288.281 144.398 287.077 144.635 285.776C144.872 284.474 144.722 283.131 144.206 281.914C143.689 280.697 142.828 279.659 141.729 278.929C140.63 278.199 139.341 277.809 138.024 277.808V277.808Z" fill="white"/>
<path d="M186.579 262.667C179.011 256.03 161.529 240.773 156.777 237.14C154.945 235.59 152.862 234.368 150.617 233.527C149.636 233.22 148.614 233.061 147.586 233.056C146.257 233.065 144.937 233.284 143.675 233.704C140.354 235.101 137.293 237.053 134.621 239.477L134.465 239.595C131.727 241.774 128.872 244.052 126.74 244.523C125.798 244.742 124.833 244.854 123.866 244.857C122.899 244.938 121.926 244.824 121.003 244.524C120.079 244.224 119.225 243.744 118.488 243.109C118.351 242.952 118.488 242.658 118.762 242.265L125.411 235.078C130.632 229.835 135.54 224.887 146.921 224.632H147.488C152.636 224.837 157.695 226.037 162.39 228.166C168.693 231.336 175.638 233.009 182.688 233.056C190.413 232.921 198.015 231.091 204.961 227.695C204.101 226.968 203.201 226.242 202.263 225.555C196.119 228.375 189.462 229.893 182.707 230.012C176.105 229.96 169.602 228.388 163.7 225.417C158.605 223.051 153.097 221.717 147.488 221.49H146.843C140.093 221.384 133.532 223.726 128.364 228.088C125.227 228.243 122.123 228.811 119.133 229.776C117.033 230.474 114.85 230.89 112.641 231.013C111.8 231.013 110.314 231.013 110.177 231.013C102.163 229.62 94.3035 227.443 86.7109 224.514C85.7723 225.181 84.8532 225.888 83.9537 226.595C93.7312 230.621 105.464 233.723 109.375 233.959C110.412 233.959 111.526 234.136 112.641 234.155C115.136 234.027 117.602 233.565 119.974 232.781C121.382 232.368 122.947 231.936 124.57 231.622L123.26 232.938L116.572 240.301C116.054 240.757 115.687 241.359 115.519 242.03C115.351 242.7 115.391 243.405 115.633 244.052C116.031 244.861 116.648 245.542 117.413 246.016C119.598 247.26 122.077 247.891 124.589 247.842C125.555 247.847 126.519 247.748 127.464 247.547C130.28 246.899 133.331 244.523 136.42 242.01C139.024 239.747 142.003 237.96 145.22 236.728C146.018 236.513 146.839 236.401 147.664 236.394H148.251C150.722 236.814 153.026 237.923 154.9 239.595C160.512 243.816 185.074 265.397 185.406 265.613C185.895 266.079 186.281 266.643 186.537 267.269C186.793 267.895 186.914 268.569 186.892 269.246C186.849 269.89 186.648 270.515 186.307 271.063C185.965 271.611 185.495 272.066 184.937 272.387C183.979 273.025 182.859 273.373 181.71 273.389C180.7 273.393 179.709 273.107 178.855 272.564C178.757 272.564 170.349 264.71 167.259 262.137C166.869 261.721 166.353 261.445 165.792 261.352C165.668 261.352 165.545 261.38 165.434 261.434C165.322 261.489 165.224 261.568 165.147 261.666C164.677 262.275 165.147 263.099 165.851 263.63L175.628 273.546C176.364 274.267 176.839 275.214 176.978 276.236C177.001 277.066 176.796 277.886 176.386 278.607C175.975 279.327 175.375 279.92 174.651 280.321C173.63 281.044 172.419 281.447 171.17 281.479C170.172 281.483 169.196 281.182 168.373 280.615L166.946 279.221C164.384 276.688 161.725 274.056 159.769 272.407C159.374 272.004 158.859 271.742 158.302 271.661C158.186 271.659 158.071 271.68 157.964 271.724C157.856 271.768 157.758 271.833 157.677 271.916C157.462 272.171 157.305 272.603 157.853 273.35C158.01 273.544 158.18 273.727 158.361 273.899L165.538 281.99C165.948 282.464 166.186 283.063 166.214 283.69C166.243 284.318 166.06 284.936 165.694 285.446L165.44 285.76C165.239 285.996 165.016 286.213 164.775 286.408C163.764 287.161 162.533 287.554 161.275 287.527C160.95 287.559 160.622 287.559 160.297 287.527C159.777 287.487 159.284 287.28 158.889 286.938H158.791C158.4 286.526 154.88 282.814 151.791 280.321C151.424 279.919 150.936 279.65 150.402 279.555C150.28 279.557 150.16 279.585 150.049 279.635C149.938 279.686 149.839 279.759 149.757 279.849C149.17 280.497 150.05 281.479 150.422 281.813L156.543 288.587C156.494 288.74 156.414 288.88 156.308 289C156.093 289.314 155.35 290.06 153.14 290.335H152.319C150.196 290.182 148.136 289.544 146.296 288.47C146.945 287.072 147.235 285.533 147.136 283.994C147.038 282.455 146.556 280.966 145.734 279.663C144.912 278.36 143.777 277.286 142.433 276.54C141.089 275.793 139.579 275.399 138.043 275.392H137.711C137.969 273.648 137.657 271.867 136.821 270.316C135.985 268.765 134.671 267.528 133.076 266.791C131.845 266.242 130.513 265.954 129.165 265.947C128.21 265.944 127.262 266.117 126.369 266.457C125.441 264.646 123.839 263.277 121.91 262.648C120.883 262.298 119.807 262.113 118.723 262.098C116.894 262.092 115.108 262.662 113.619 263.728C112.945 262.879 112.099 262.182 111.139 261.684C110.178 261.185 109.123 260.896 108.043 260.835C106.964 260.773 105.883 260.942 104.873 261.329C103.862 261.716 102.944 262.312 102.179 263.08C100.224 261.627 92.7144 256.816 72.4943 252.201C71.5166 251.966 69.2677 251.318 67.8988 250.925C67.6634 252.021 67.4872 253.128 67.3708 254.243L71.8294 255.304C92.4993 259.899 99.3631 264.69 100.478 265.593C99.9839 266.774 99.7887 268.058 99.9096 269.333C100.03 270.607 100.464 271.832 101.17 272.897C101.877 273.963 102.835 274.836 103.96 275.439C105.085 276.042 106.34 276.357 107.615 276.354C108.087 276.355 108.558 276.315 109.023 276.236C109.334 277.779 110.038 279.214 111.066 280.401C112.094 281.589 113.412 282.488 114.89 283.011C116.326 283.586 117.906 283.696 119.407 283.325C120.121 284.815 121.227 286.08 122.606 286.984C123.985 287.887 125.584 288.394 127.229 288.45C128.036 288.452 128.837 288.312 129.595 288.038C130.172 289.442 131.087 290.68 132.258 291.641C133.43 292.602 134.82 293.256 136.305 293.544C137.79 293.832 139.323 293.746 140.767 293.292C142.21 292.838 143.519 292.031 144.575 290.944C146.961 292.332 149.643 293.126 152.397 293.261C152.788 293.281 153.179 293.281 153.57 293.261C154.575 293.228 155.562 292.982 156.465 292.539C157.368 292.095 158.168 291.465 158.811 290.689C158.928 290.512 159.026 290.335 159.124 290.158C159.928 290.409 160.765 290.542 161.607 290.551C163.422 290.515 165.174 289.88 166.594 288.745C168.095 287.748 169.153 286.207 169.547 284.444C170.1 284.562 170.663 284.621 171.228 284.621C173.059 284.595 174.841 284.028 176.352 282.991C177.505 282.321 178.455 281.351 179.102 280.182C179.75 279.013 180.07 277.691 180.028 276.354C180.588 276.471 181.158 276.53 181.73 276.531C183.441 276.513 185.111 276.002 186.54 275.058C187.482 274.473 188.273 273.675 188.851 272.727C189.428 271.778 189.775 270.707 189.865 269.599C189.988 268.051 189.618 266.504 188.809 265.181C199.11 260.92 209.745 257.524 220.605 255.029C220.521 253.916 220.377 252.808 220.175 251.71C208.648 254.257 197.396 257.927 186.579 262.667V262.667ZM138.024 290.826C136.431 290.838 134.895 290.232 133.736 289.135C132.578 288.037 131.886 286.533 131.805 284.935C131.805 284.641 131.805 283.875 131.121 283.875C130.826 283.902 130.553 284.043 130.358 284.267C129.963 284.691 129.488 285.032 128.961 285.271C128.434 285.511 127.866 285.643 127.288 285.662C126.615 285.643 125.951 285.496 125.332 285.23C121.773 283.777 121.715 281.302 121.871 280.34C121.905 280.213 121.91 280.081 121.887 279.952C121.863 279.822 121.811 279.7 121.734 279.594L121.519 279.398H121.304C121.075 279.405 120.855 279.487 120.678 279.633C119.812 280.302 118.759 280.68 117.667 280.713C117.083 280.716 116.505 280.603 115.966 280.379C114.483 279.824 113.252 278.748 112.5 277.351C111.749 275.953 111.528 274.329 111.878 272.78C111.907 272.667 111.904 272.549 111.869 272.438C111.835 272.327 111.77 272.228 111.683 272.152L111.35 271.877L111.038 272.171C110.251 272.932 109.232 273.403 108.146 273.51C107.059 273.617 105.969 273.352 105.05 272.759C104.132 272.166 103.44 271.279 103.086 270.242C102.732 269.205 102.737 268.079 103.1 267.045C103.463 266.011 104.162 265.13 105.086 264.545C106.009 263.96 107.102 263.705 108.187 263.821C109.273 263.937 110.288 264.417 111.067 265.184C111.847 265.951 112.347 266.96 112.485 268.048L112.641 269.363L113.365 268.244C113.978 267.313 114.8 266.539 115.764 265.983C116.728 265.428 117.808 265.106 118.918 265.043C119.635 265.052 120.346 265.164 121.03 265.377C122.015 265.679 122.882 266.282 123.51 267.102C124.137 267.922 124.494 268.919 124.531 269.952C124.531 270.581 125.039 270.62 125.117 270.62C125.227 270.613 125.334 270.583 125.431 270.532C125.529 270.481 125.615 270.411 125.684 270.326C126.146 269.839 126.701 269.452 127.316 269.189C127.932 268.925 128.594 268.791 129.263 268.794C130.187 268.824 131.096 269.03 131.942 269.403C136.538 271.366 134.445 277.257 134.426 277.257C134.035 278.219 134.015 278.651 134.426 278.887H134.602H134.738C135.047 278.848 135.35 278.769 135.638 278.651C136.418 278.337 137.244 278.152 138.082 278.102C138.917 278.109 139.742 278.283 140.509 278.612C141.276 278.942 141.971 279.421 142.553 280.022C143.135 280.622 143.592 281.333 143.899 282.112C144.206 282.892 144.356 283.724 144.34 284.562C144.34 285.391 144.176 286.212 143.858 286.977C143.539 287.743 143.073 288.437 142.485 289.019C141.898 289.602 141.201 290.062 140.435 290.372C139.669 290.682 138.85 290.836 138.024 290.826V290.826Z" fill="#2D3277"/>
<path d="M495.395 224.16C492.514 220.534 488.147 218.721 482.293 218.721C476.44 218.721 472.072 220.534 469.191 224.16C466.295 227.799 464.765 232.345 464.869 237.002C464.749 241.674 466.28 246.238 469.191 249.884C472.059 253.458 476.427 255.245 482.293 255.245C488.16 255.245 492.527 253.458 495.395 249.884C498.306 246.238 499.837 241.674 499.717 237.002C499.821 232.345 498.292 227.799 495.395 224.16V224.16ZM488.277 244.936C487.533 245.81 486.61 246.512 485.57 246.994C484.53 247.475 483.399 247.724 482.254 247.724C481.109 247.724 479.978 247.475 478.938 246.994C477.898 246.512 476.974 245.81 476.231 244.936C474.71 242.612 473.976 239.857 474.139 237.081C473.97 234.304 474.705 231.548 476.231 229.226C476.978 228.358 477.903 227.661 478.942 227.184C479.981 226.706 481.111 226.459 482.254 226.459C483.397 226.459 484.526 226.706 485.566 227.184C486.605 227.661 487.53 228.358 488.277 229.226C489.794 231.552 490.528 234.305 490.369 237.081C490.522 239.856 489.789 242.608 488.277 244.936V244.936Z" fill="#2D3277"/>
<path d="M421.828 221.137C418.716 219.6 415.283 218.832 411.816 218.898C406.047 218.898 402.038 220.41 399.594 223.434C398.013 225.583 397.126 228.167 397.052 230.837H405.695C405.838 229.696 406.276 228.613 406.966 227.695C407.563 227.111 408.281 226.666 409.068 226.391C409.855 226.116 410.693 226.019 411.522 226.105C413.013 226.027 414.5 226.302 415.864 226.91C416.361 227.206 416.763 227.639 417.022 228.158C417.282 228.676 417.389 229.258 417.33 229.836C417.322 230.416 417.128 230.978 416.775 231.438C416.423 231.898 415.931 232.232 415.375 232.388C414.219 232.799 413.017 233.063 411.796 233.174L408.726 233.547C406.004 233.791 403.351 234.544 400.904 235.766C399.312 236.679 398.008 238.023 397.14 239.644C396.272 241.265 395.875 243.099 395.996 244.936C395.914 246.342 396.145 247.748 396.673 249.052C397.2 250.357 398.011 251.527 399.046 252.477C401.267 254.25 404.032 255.194 406.868 255.147C426.424 256.011 426.169 244.818 426.424 242.482V229.58C426.208 225.437 424.761 222.629 421.828 221.137ZM417.311 240.773C417.418 241.939 417.24 243.113 416.794 244.194C416.348 245.275 415.646 246.231 414.749 246.978C413.162 248.094 411.27 248.691 409.332 248.687C408.201 248.716 407.094 248.348 406.203 247.646C405.743 247.234 405.386 246.719 405.162 246.142C404.938 245.565 404.852 244.944 404.913 244.327C404.869 243.554 405.044 242.784 405.418 242.107C405.792 241.429 406.349 240.871 407.025 240.498C408.318 239.864 409.705 239.446 411.131 239.261L413.087 238.888C413.906 238.751 414.711 238.541 415.492 238.26C416.102 238.036 416.685 237.746 417.233 237.396L417.311 240.773Z" fill="#2D3277"/>
<path d="M377.321 226.576C378.253 226.513 379.186 226.674 380.043 227.047C380.9 227.419 381.656 227.991 382.249 228.716C382.973 229.74 383.436 230.927 383.598 232.172H393.239C392.704 227.289 391.003 223.886 388.135 221.961C384.817 219.882 380.955 218.849 377.047 218.996C374.739 218.873 372.431 219.247 370.279 220.094C368.127 220.941 366.181 222.24 364.571 223.905C361.361 227.733 359.743 232.656 360.054 237.651C359.863 242.228 361.313 246.721 364.141 250.316C366.878 253.576 371.122 255.225 376.91 255.225C379.41 255.39 381.911 254.939 384.198 253.913C386.484 252.886 388.487 251.314 390.032 249.334C391.789 247.12 392.863 244.437 393.121 241.617H383.539C383.418 243.22 382.826 244.751 381.838 246.016C381.227 246.626 380.49 247.094 379.679 247.386C378.868 247.678 378.003 247.786 377.145 247.705C375.766 247.797 374.395 247.426 373.248 246.651C372.101 245.877 371.243 244.741 370.809 243.424C370.113 241.487 369.794 239.434 369.87 237.376C369.794 235.228 370.112 233.085 370.809 231.053C371.251 229.69 372.129 228.512 373.307 227.702C374.484 226.893 375.896 226.497 377.321 226.576V226.576Z" fill="#2D3277"/>
<path d="M357.492 218.996C337.702 218.996 338.876 236.669 338.876 236.669V254.538H347.852V237.709C347.73 235.621 348.084 233.532 348.888 231.602C350.12 229.266 352.525 228.088 356.104 228.088H357.179L358.685 228.205V219.074H357.903L357.492 218.996Z" fill="#2D3277"/>
<path d="M324.482 245.132C324.139 245.641 323.724 246.098 323.251 246.487C321.795 247.524 320.022 248.01 318.244 247.862C316.569 247.956 314.902 247.553 313.453 246.703C312.283 245.93 311.333 244.864 310.695 243.612C310.057 242.359 309.755 240.961 309.816 239.555H334.671C334.744 237.287 334.646 235.015 334.377 232.761C334.009 230.224 333.08 227.803 331.659 225.673C330.219 223.462 328.185 221.705 325.793 220.606C323.263 219.508 320.531 218.96 317.775 218.996C315.529 218.91 313.289 219.287 311.193 220.105C309.098 220.922 307.192 222.162 305.592 223.748C302.444 226.929 300.879 231.465 300.879 237.494C300.879 243.836 302.62 248.392 306.081 251.239C309.473 254.018 313.73 255.513 318.108 255.461C320.482 255.573 322.852 255.171 325.059 254.284C327.265 253.396 329.256 252.043 330.897 250.316C332.357 248.88 333.433 247.097 334.025 245.132H324.482ZM312.515 228.343C313.22 227.667 314.056 227.145 314.971 226.807C315.886 226.469 316.86 226.324 317.834 226.379C319.767 226.316 321.655 226.973 323.133 228.225C323.872 228.921 324.463 229.76 324.869 230.692C325.276 231.623 325.49 232.628 325.499 233.645H310.149C310.348 231.668 311.178 229.808 312.515 228.343V228.343Z" fill="#2D3277"/>
<path d="M297.242 254.46H289.048V233.724C289.121 232.895 289.017 232.06 288.745 231.274C288.472 230.488 288.037 229.769 287.468 229.165C286.899 228.56 286.209 228.083 285.443 227.765C284.678 227.448 283.853 227.297 283.025 227.322C282.188 227.296 281.355 227.445 280.579 227.76C279.802 228.075 279.099 228.548 278.515 229.15C277.93 229.752 277.476 230.469 277.182 231.257C276.888 232.044 276.76 232.884 276.807 233.724V254.46H268.594V233.724C268.69 232.903 268.608 232.071 268.355 231.285C268.101 230.499 267.682 229.778 267.124 229.17C266.567 228.562 265.886 228.082 265.127 227.763C264.368 227.444 263.549 227.294 262.727 227.322C261.888 227.29 261.053 227.435 260.273 227.748C259.494 228.06 258.789 228.534 258.203 229.137C257.617 229.74 257.163 230.46 256.871 231.25C256.58 232.04 256.456 232.883 256.508 233.724V254.46H248.178V233.92C248.178 225.358 253.849 218.898 262.61 218.898C264.564 218.85 266.503 219.258 268.274 220.09C270.045 220.921 271.6 222.153 272.818 223.689C274.051 222.177 275.607 220.961 277.37 220.132C279.133 219.303 281.059 218.881 283.006 218.898C291.962 218.898 297.242 225.123 297.242 233.94V254.46Z" fill="#2D3277"/>
<path d="M462.19 208.177C462.19 208.177 453.156 207.215 453.156 214.5V224.161C452.201 222.579 450.853 221.273 449.245 220.371C447.565 219.437 445.67 218.963 443.75 218.996C441.688 218.928 439.639 219.349 437.77 220.226C435.901 221.103 434.265 222.411 432.994 224.043C430.15 228.138 428.772 233.08 429.083 238.063C428.891 242.581 430.344 247.013 433.17 250.533C435.888 253.753 441.227 255.167 445.959 255.167C462.503 255.167 462.308 240.93 462.308 240.93L462.19 208.177ZM451.357 245.015C450.712 245.938 449.845 246.682 448.836 247.176C447.827 247.671 446.709 247.9 445.588 247.842C444.48 247.906 443.375 247.677 442.383 247.177C441.391 246.678 440.548 245.925 439.936 244.995C438.595 242.604 437.951 239.882 438.079 237.141C437.987 234.555 438.624 231.996 439.917 229.757C440.517 228.769 441.376 227.966 442.401 227.437C443.425 226.907 444.575 226.67 445.725 226.753C447.376 226.734 448.98 227.313 450.242 228.383C452.334 230.189 453.39 233.429 453.39 237.612C453.5 240.232 452.788 242.821 451.357 245.015V245.015Z" fill="#2D3277"/>
<path d="M359.291 297.542C358.959 298.054 358.55 298.511 358.079 298.897C356.611 299.943 354.829 300.449 353.034 300.33C351.376 300.425 349.729 300.021 348.301 299.171C347.149 298.386 346.218 297.316 345.598 296.064C344.978 294.812 344.69 293.42 344.762 292.024H369.401C369.459 289.774 369.355 287.523 369.088 285.289C368.733 282.773 367.817 280.37 366.409 278.259C364.963 276.063 362.929 274.321 360.543 273.232C358.037 272.149 355.331 271.613 352.603 271.661C350.373 271.569 348.148 271.938 346.066 272.745C343.983 273.552 342.088 274.781 340.499 276.354C337.409 279.496 335.844 283.993 335.844 289.883C335.844 296.167 337.565 300.683 341.007 303.472C344.363 306.23 348.58 307.711 352.916 307.654C355.264 307.79 357.614 307.419 359.806 306.565C361.999 305.711 363.984 304.395 365.627 302.706C367.08 301.278 368.143 299.5 368.717 297.542H359.291ZM347.343 280.91C348.04 280.234 348.87 279.711 349.778 279.373C350.687 279.035 351.655 278.89 352.623 278.946C354.533 278.891 356.398 279.541 357.864 280.772C358.597 281.458 359.184 282.288 359.587 283.21C359.991 284.131 360.203 285.126 360.21 286.133H344.977C345.198 284.185 346.026 282.357 347.343 280.91V280.91Z" fill="#2D3277"/>
<path d="M297.594 271.72C295.674 271.683 293.778 272.157 292.099 273.094C290.486 273.99 289.137 275.298 288.188 276.884V260.665C288.188 260.665 279.134 259.761 279.134 267.145V293.516C279.134 293.516 278.958 307.753 295.482 307.753C300.214 307.753 305.553 306.339 308.291 303.099C311.105 299.574 312.551 295.144 312.358 290.63C312.657 285.734 311.277 280.883 308.447 276.884C307.181 275.214 305.535 273.874 303.647 272.975C301.758 272.077 299.683 271.646 297.594 271.72V271.72ZM301.309 297.444C300.701 298.376 299.858 299.131 298.865 299.631C297.873 300.131 296.766 300.359 295.658 300.291C294.537 300.349 293.421 300.117 292.414 299.619C291.408 299.121 290.545 298.372 289.909 297.444C288.509 295.268 287.825 292.706 287.953 290.119C287.953 285.943 289.003 282.952 291.102 281.145C292.359 280.068 293.966 279.488 295.619 279.516C296.752 279.439 297.885 279.675 298.895 280.197C299.904 280.72 300.753 281.509 301.349 282.481C302.638 284.713 303.275 287.265 303.187 289.844C303.308 292.507 302.656 295.147 301.309 297.444V297.444Z" fill="#2D3277"/>
<path d="M334.143 271.68H333.732C313.942 271.68 315.115 289.353 315.115 289.353V307.026H324.091V290.531C323.962 288.449 324.317 286.365 325.128 284.444C326.36 282.107 328.765 280.929 332.344 280.929H333.419C333.849 280.929 334.358 280.929 334.925 281.067V271.739L334.143 271.68Z" fill="#2D3277"/>
<path d="M248.178 267.106V306.791H256.606V260.645C256.606 260.645 248.178 260.292 248.178 267.106Z" fill="#2D3277"/>
<path d="M272.505 260.566H263.49V269.54H272.505V260.566Z" fill="#2D3277"/>
<path d="M272.525 272.603H263.49V306.849H272.525V272.603Z" fill="#2D3277"/>
</svg>
