<svg width="563" height="522" viewBox="0 0 563 522" fill="none" xmlns="http://www.w3.org/2000/svg">
<rect width="563" height="522" fill="white"/>
<path d="M186.699 256.083V245.258H174.722V234L166.121 235.839C165.828 237.441 165.211 238.968 164.306 240.327C163.445 241.709 162.303 242.898 160.954 243.818C159.608 244.743 158.086 245.385 156.48 245.703C156.307 245.741 156.133 245.76 155.96 245.791V256.088H161.602V274.764C161.602 279.201 162.912 282.555 165.533 284.828C168.153 287.1 172.026 288.235 177.151 288.233C178.698 288.21 180.243 288.09 181.775 287.872C183.31 287.693 184.826 287.383 186.307 286.948V276.447C185.327 276.744 184.326 276.971 183.313 277.127C182.344 277.265 181.365 277.332 180.386 277.328C178.824 277.487 177.258 277.074 175.981 276.167C175.511 275.625 175.157 274.994 174.941 274.312C174.724 273.629 174.649 272.911 174.721 272.199V256.083H186.699Z" fill="#00369C"/>
<path d="M97.2544 234C97.3453 235.843 98.1473 237.581 99.4946 238.854C100.842 240.127 102.631 240.837 104.491 240.837C106.352 240.837 108.141 240.127 109.488 238.854C110.835 237.581 111.637 235.843 111.728 234H97.2544Z" fill="#00369C"/>
<path d="M55 282.935L61.2423 274.198C63.5601 275.625 66.0296 276.795 68.6061 277.684C70.7188 278.39 72.9319 278.756 75.1611 278.767C76.9238 278.842 78.6812 278.526 80.3054 277.843C80.8306 277.665 81.2927 277.341 81.6361 276.908C81.9712 276.472 82.1685 275.948 82.203 275.401C82.2082 275.013 82.1168 274.63 81.937 274.286C81.7518 273.941 81.4811 273.649 81.1504 273.436C80.1447 272.824 79.0088 272.453 77.8332 272.354L69.3368 271.073C65.7371 270.704 62.3422 269.233 59.6228 266.865C58.4881 265.774 57.5988 264.457 57.0131 263.001C56.4274 261.545 56.1586 259.982 56.2243 258.416C56.1467 256.461 56.5556 254.517 57.4151 252.756C58.2806 250.995 59.5666 249.47 61.161 248.314C64.4434 245.858 68.9482 244.629 74.6754 244.628C77.8131 244.637 80.934 245.082 83.9476 245.949C86.99 246.805 89.8938 248.088 92.5716 249.757L86.3294 258.091C84.2431 256.857 82.0153 255.875 79.6934 255.167C77.6445 254.562 75.5183 254.254 73.3806 254.252C71.9823 254.193 70.5912 254.482 69.334 255.092C68.8927 255.278 68.5126 255.583 68.2363 255.972C67.9716 256.365 67.8197 256.821 67.797 257.292C67.7875 257.701 67.8872 258.105 68.0859 258.463C68.2903 258.818 68.5802 259.118 68.9296 259.335C70.1287 259.986 71.4516 260.382 72.8137 260.496L81.3101 261.781C84.9191 262.104 88.3334 263.549 91.0667 265.909C92.1968 266.957 93.0875 268.233 93.6788 269.651C94.2711 271.067 94.555 272.591 94.5118 274.123C94.5197 276.112 94.0183 278.071 93.0547 279.815C92.0608 281.606 90.693 283.165 89.0427 284.389C87.2032 285.741 85.1365 286.759 82.9389 287.395C80.4408 288.133 77.8459 288.498 75.2395 288.476C71.4327 288.506 67.6386 288.035 63.9567 287.074C60.74 286.266 57.7049 284.866 55.0093 282.946" fill="#00369C"/>
<path d="M114.179 282.935L120.411 274.198C122.734 275.623 125.207 276.793 127.787 277.684C129.899 278.39 132.112 278.756 134.342 278.767C136.104 278.842 137.862 278.526 139.486 277.843C140.009 277.668 140.467 277.342 140.803 276.908C141.146 276.476 141.348 275.95 141.381 275.401C141.388 275.012 141.292 274.627 141.104 274.286C140.924 273.942 140.657 273.649 140.33 273.436C139.324 272.823 138.187 272.453 137.011 272.354L128.514 271.073C124.914 270.706 121.519 269.235 118.8 266.865C117.666 265.773 116.777 264.457 116.191 263.001C115.605 261.545 115.336 259.982 115.402 258.416C115.324 256.461 115.734 254.517 116.593 252.756C117.458 250.998 118.739 249.474 120.327 248.314C123.622 245.858 128.13 244.629 133.853 244.628C136.991 244.637 140.112 245.082 143.125 245.949C146.168 246.805 149.072 248.088 151.749 249.757L145.507 258.091C143.42 256.859 141.192 255.877 138.871 255.167C136.822 254.562 134.696 254.254 132.558 254.252C131.16 254.193 129.769 254.482 128.512 255.092C128.071 255.278 127.69 255.583 127.414 255.972C127.144 256.362 126.992 256.82 126.975 257.292C126.966 257.702 127.065 258.106 127.264 258.464C127.463 258.823 127.754 259.123 128.107 259.335C129.306 259.986 130.629 260.382 131.992 260.496L140.488 261.781C144.097 262.104 147.512 263.548 150.246 265.909C151.376 266.957 152.267 268.233 152.859 269.651C153.451 271.067 153.735 272.591 153.691 274.123C153.699 276.112 153.197 278.071 152.234 279.815C151.24 281.606 149.872 283.165 148.222 284.389C146.378 285.744 144.305 286.762 142.101 287.395C139.607 288.133 137.016 288.498 134.413 288.476C130.602 288.506 126.804 288.035 123.118 287.074C119.906 286.264 116.875 284.864 114.182 282.946" fill="#00369C"/>
<path d="M230.177 282.045C227.726 284.144 224.919 285.798 221.888 286.929C218.803 287.984 215.556 288.5 212.293 288.452C209.164 288.473 206.061 287.901 203.148 286.768C200.412 285.737 197.91 284.174 195.79 282.171C193.669 280.168 191.973 277.766 190.801 275.105C189.581 272.394 188.958 269.457 188.974 266.488C188.927 262.149 190.194 257.896 192.612 254.281C195.03 250.665 198.487 247.853 202.535 246.21C205.321 245.076 208.306 244.505 211.317 244.528C214.219 244.496 217.096 245.064 219.765 246.195C222.434 247.326 224.836 248.996 226.82 251.098C228.791 253.224 230.316 255.718 231.305 258.434C232.407 261.398 232.955 264.537 232.923 267.696V270.899H202.415C203.265 272.864 204.665 274.547 206.45 275.746C208.362 277.026 210.629 277.684 212.935 277.629C214.589 277.65 216.232 277.364 217.779 276.785C219.176 276.27 220.447 275.464 221.505 274.422L230.177 282.045ZM211.078 255.114C209.068 255.064 207.1 255.684 205.489 256.876C203.87 258.133 202.705 259.877 202.172 261.847H220.056C219.426 259.916 218.231 258.215 216.623 256.962C215.04 255.735 213.082 255.082 211.074 255.114" fill="#00369C"/>
<path d="M111.056 245.263H97.9343V287.662H111.056V245.263Z" fill="#00369C"/>
<path d="M460.165 256.083V245.258H448.189V234L439.587 235.839C439.294 237.441 438.677 238.968 437.772 240.327C436.912 241.706 435.774 242.894 434.431 243.818C433.08 244.741 431.554 245.382 429.945 245.703C429.772 245.741 429.599 245.76 429.425 245.791V256.088H435.067V274.764C435.067 279.201 436.377 282.555 438.998 284.828C441.618 287.1 445.491 288.235 450.616 288.233C452.163 288.21 453.708 288.09 455.24 287.872C456.775 287.693 458.291 287.383 459.772 286.948V276.447C458.792 276.744 457.791 276.971 456.778 277.127C455.813 277.264 454.84 277.331 453.865 277.328C452.3 277.488 450.729 277.076 449.449 276.167C448.979 275.625 448.625 274.994 448.408 274.312C448.192 273.629 448.117 272.911 448.189 272.199V256.083H460.165Z" fill="#3EC92B"/>
<path d="M324.42 234.046C324.511 235.89 325.313 237.628 326.66 238.901C328.007 240.173 329.796 240.883 331.657 240.883C333.517 240.883 335.306 240.173 336.653 238.901C338 237.628 338.803 235.89 338.893 234.046H324.42Z" fill="#3EC92B"/>
<path d="M408.731 234.046C408.822 235.89 409.625 237.628 410.972 238.901C412.319 240.173 414.108 240.883 415.968 240.883C417.829 240.883 419.618 240.173 420.965 238.901C422.312 237.628 423.114 235.89 423.205 234.046H408.731Z" fill="#3EC92B"/>
<path d="M259.24 277.242C260.952 277.258 262.643 276.874 264.176 276.121C265.839 275.256 267.322 274.086 268.546 272.673L276.314 280.691C274.136 283.166 271.426 285.123 268.384 286.419C265.3 287.774 261.965 288.471 258.593 288.466C255.528 288.488 252.488 287.916 249.645 286.781C246.937 285.665 244.477 284.029 242.408 281.967C240.339 279.906 238.701 277.458 237.588 274.767C236.476 272.075 235.91 269.192 235.924 266.282C235.937 263.373 236.531 260.495 237.669 257.814C238.772 255.194 240.396 252.822 242.443 250.838C246.786 246.709 252.58 244.424 258.594 244.467C262.049 244.456 265.468 245.165 268.628 246.549C271.715 247.87 274.476 249.84 276.72 252.322L268.708 260.577C267.403 259.086 265.841 257.837 264.095 256.89C262.492 256.079 260.715 255.667 258.916 255.688C257.578 255.668 256.251 255.935 255.028 256.473C253.804 257.011 252.713 257.806 251.83 258.804C249.91 260.905 248.882 263.661 248.962 266.496C248.917 267.902 249.157 269.303 249.668 270.615C250.176 271.927 250.939 273.128 251.911 274.15C252.843 275.15 253.978 275.942 255.242 276.475C256.505 277.007 257.868 277.267 259.24 277.238" fill="#3EC92B"/>
<path d="M279.876 287.662V245.265H292.998V249.51C294.348 247.893 296.032 246.582 297.935 245.663C299.906 244.735 302.065 244.269 304.246 244.3C305.249 244.331 306.249 244.425 307.24 244.579C307.936 244.69 308.6 244.951 309.183 245.344V256.643C308.244 256.244 307.268 255.934 306.27 255.719C305.181 255.476 304.069 255.355 302.953 255.357C300.955 255.343 298.988 255.841 297.241 256.802C295.519 257.74 294.061 259.09 292.999 260.73V287.66L279.876 287.662Z" fill="#3EC92B"/>
<path d="M350.881 282.045C348.427 284.147 345.617 285.801 342.58 286.929C339.495 287.985 336.248 288.501 332.985 288.452C329.857 288.472 326.753 287.9 323.84 286.768C321.106 285.732 318.606 284.168 316.487 282.166C314.367 280.163 312.67 277.763 311.493 275.105C310.276 272.393 309.658 269.456 309.678 266.488C309.659 263.53 310.248 260.598 311.408 257.873C312.517 255.254 314.127 252.872 316.148 250.859C318.178 248.86 320.586 247.28 323.235 246.21C326.018 245.077 329.001 244.505 332.01 244.528C334.912 244.496 337.788 245.064 340.457 246.195C343.126 247.326 345.528 248.996 347.512 251.098C349.487 253.223 351.016 255.717 352.009 258.434C353.107 261.399 353.652 264.538 353.617 267.696V270.899H323.119C323.973 272.865 325.378 274.547 327.166 275.746C329.075 277.024 331.337 277.682 333.64 277.629C335.297 277.65 336.944 277.364 338.495 276.785C339.89 276.264 341.159 275.459 342.221 274.422L350.881 282.045ZM331.783 255.114C329.774 255.068 327.808 255.689 326.194 256.878C324.575 258.133 323.411 259.877 322.877 261.847H340.773C340.14 259.915 338.94 258.215 337.328 256.962C335.75 255.735 333.796 255.083 331.791 255.114" fill="#3EC92B"/>
<path d="M389.979 287.662V284.537C388.317 285.706 386.49 286.624 384.557 287.262C382.599 287.905 380.549 288.23 378.487 288.224C375.554 288.24 372.648 287.666 369.944 286.537C367.339 285.457 364.974 283.878 362.985 281.889C361.002 279.893 359.421 277.539 358.328 274.954C357.183 272.253 356.605 269.35 356.628 266.42C356.609 263.485 357.203 260.579 358.374 257.884C360.622 252.648 364.871 248.511 370.189 246.379C374.779 244.533 379.844 244.197 384.64 245.419C386.451 245.888 388.192 246.588 389.819 247.504V236.853L402.94 234.046V287.661L389.979 287.662ZM369.505 266.422C369.474 267.856 369.75 269.279 370.314 270.599C370.878 271.919 371.718 273.105 372.777 274.079C373.837 275.089 375.087 275.882 376.456 276.412C377.825 276.942 379.286 277.199 380.755 277.168C382.465 277.188 384.164 276.903 385.773 276.327C387.279 275.764 388.655 274.905 389.819 273.802V258.968C388.633 257.925 387.26 257.111 385.773 256.566C384.168 255.972 382.468 255.674 380.755 255.686C379.278 255.647 377.808 255.901 376.431 256.431C375.054 256.961 373.796 257.757 372.732 258.774C371.688 259.756 370.861 260.943 370.305 262.26C369.742 263.577 369.469 264.998 369.507 266.428" fill="#3EC92B"/>
<path d="M422.523 245.263H409.401V287.662H422.523V245.263Z" fill="#3EC92B"/>
<path d="M500.278 257.353C500.044 257.251 499.793 257.196 499.538 257.191C499.28 257.184 499.023 257.228 498.783 257.321C498.543 257.414 498.324 257.555 498.14 257.733C497.95 257.908 497.801 258.12 497.7 258.357L495.157 264.114C495.31 264.901 495.387 265.701 495.389 266.503C495.415 267.909 495.16 269.305 494.638 270.612C494.116 271.919 493.338 273.11 492.348 274.116C491.39 275.106 490.24 275.893 488.968 276.43C487.696 276.968 486.327 277.245 484.944 277.245C483.561 277.245 482.192 276.968 480.92 276.43C479.647 275.893 478.497 275.106 477.539 274.116C475.55 272.055 474.44 269.313 474.44 266.46C474.44 263.607 475.55 260.864 477.539 258.803C478.494 257.812 479.643 257.025 480.915 256.49C482.832 255.678 484.953 255.465 486.995 255.878C489.038 256.291 490.905 257.311 492.348 258.803C492.948 259.42 493.472 260.106 493.909 260.845L495.435 257.37C495.676 256.846 496.013 256.37 496.43 255.969C496.848 255.567 497.344 255.253 497.887 255.044C498.428 254.834 499.006 254.732 499.587 254.744C500.169 254.755 500.742 254.88 501.275 255.112L505.992 257.155C504.853 254.807 503.303 252.677 501.414 250.866C499.281 248.855 496.782 247.264 494.05 246.177C488.198 243.881 481.683 243.881 475.831 246.177C473.1 247.266 470.602 248.857 468.467 250.866C466.375 252.863 464.698 255.246 463.53 257.881C462.333 260.599 461.715 263.532 461.715 266.497C461.715 269.462 462.333 272.396 463.53 275.113C464.698 277.748 466.375 280.13 468.467 282.125C470.595 284.133 473.096 285.712 475.831 286.775C481.693 289.019 488.188 289.019 494.05 286.775C496.787 285.715 499.288 284.136 501.414 282.125C503.506 280.13 505.183 277.748 506.351 275.113C508.418 270.466 508.742 265.239 507.264 260.376L500.278 257.353Z" fill="#3EC92B"/>
</svg>
