<?xml version="1.0" encoding="UTF-8"?>
<svg id="Capa_1" data-name="Capa 1" xmlns="http://www.w3.org/2000/svg" xmlns:xlink="http://www.w3.org/1999/xlink" viewBox="0 0 1080 1080">
  <defs>
    <style>
      .cls-1 {
        fill: #fff;
      }

      .cls-2 {
        fill: #00237c;
      }

      .cls-3 {
        fill: url(#Degradado_sin_nombre_7);
      }
    </style>
    <linearGradient id="Degradado_sin_nombre_7" data-name="Degradado sin nombre 7" x1="533.01" y1="197.77" x2="533.01" y2="669.22" gradientUnits="userSpaceOnUse">
      <stop offset="0" stop-color="#a855f7"/>
      <stop offset="1" stop-color="#22d3ee"/>
    </linearGradient>
  </defs>
  <rect class="cls-2" width="1080" height="1080"/>
  <g>
    <g>
      <path class="cls-1" d="M272.72,757.4l-2.9-2.84h-11.43l-2.9,2.84v36.03h-7.89v-39.24l6.53-6.6h17.51l4.99,5.04,4.99-5.04h17.6l6.53,6.6v39.24h-7.89v-36.03l-2.9-2.84h-11.52l-2.81,2.84v36.03h-7.89v-36.03Z"/>
      <path class="cls-1" d="M323.15,786.73v-16.23l3.45-3.48h27.67v-9.62l-2.81-2.84h-17.6l-2.81,2.84v4.95h-7.89v-8.16l6.53-6.6h25.94l6.62,6.6v32.54l-6.26,6.69h-26.31l-6.53-6.69ZM333.86,786.46h17.6l2.81-2.93v-10.54h-21.77l-1.45,1.47v9.08l2.81,2.93Z"/>
      <path class="cls-1" d="M379.58,729.25h7.89v13.75h-7.89v-13.75ZM379.58,747.59h7.89v45.84h-7.89v-45.84Z"/>
      <path class="cls-1" d="M406.34,754.19l6.53-6.6h26.04l6.53,6.6v39.24h-7.89v-36.03l-2.9-2.84h-17.51l-2.9,2.84v36.03h-7.89v-39.24Z"/>
      <path class="cls-1" d="M462.85,786.73v-32.54l6.53-6.6h24.58v-18.34h7.98v57.48l-6.62,6.69h-25.94l-6.53-6.69ZM473.56,786.46h17.6l2.81-2.93v-28.97h-20.41l-2.81,2.84v26.13l2.81,2.93Z"/>
      <path class="cls-1" d="M519.36,786.73v-7.98h7.89v4.77l2.81,2.93h17.6l2.81-2.93v-9.17l-1.45-1.47h-26.31l-3.36-3.39v-15.31l6.53-6.6h25.94l6.62,6.6v8.07h-7.98v-4.86l-2.81-2.84h-17.6l-2.81,2.84v8.07l1.45,1.47h26.31l3.45,3.48v16.32l-6.62,6.69h-25.94l-6.53-6.69Z"/>
      <path class="cls-1" d="M575.79,786.73v-32.18h-6.8v-6.97h6.8v-9.17h7.89v9.17h13.61v6.97h-13.61v28.97l2.9,2.93h10.7v6.97h-14.97l-6.53-6.69Z"/>
      <path class="cls-1" d="M609.17,786.73v-16.23l3.45-3.48h27.67v-9.62l-2.81-2.84h-17.6l-2.81,2.84v4.95h-7.89v-8.16l6.53-6.6h25.94l6.62,6.6v32.54l-6.26,6.69h-26.31l-6.53-6.69ZM619.87,786.46h17.6l2.81-2.93v-10.54h-21.77l-1.45,1.47v9.08l2.81,2.93Z"/>
      <path class="cls-1" d="M665.59,754.19l6.53-6.6h26.04l6.53,6.6v15.13h-7.89v-11.92l-2.9-2.84h-17.51l-2.9,2.84v36.03h-7.89v-39.24Z"/>
      <path class="cls-1" d="M714.58,784.26h9.07v9.17h-9.07v-9.17Z"/>
      <path class="cls-1" d="M739.52,786.73v-32.54l6.53-6.6h26.31l6.53,6.6v9.17h-7.89v-5.96l-2.9-2.84h-17.87l-2.81,2.84v26.13l2.81,2.93h17.87l2.9-2.93v-5.96h7.89v9.17l-6.53,6.69h-26.31l-6.53-6.69Z"/>
      <path class="cls-1" d="M794.86,786.73v-32.54l6.53-6.6h25.94l6.62,6.6v32.54l-6.89,6.69h-25.67l-6.53-6.69ZM805.56,786.46h17.6l2.81-2.93v-26.13l-2.81-2.84h-17.6l-2.81,2.84v26.13l2.81,2.93Z"/>
    </g>
    <path class="cls-3" d="M533.01,225.02l208.48,208.48-208.48,208.48-208.48-208.48,208.48-208.48M533.01,197.77c-2.89,0-5.78,1.1-7.98,3.31l-224.44,224.44c-4.41,4.41-4.41,11.55,0,15.96l224.44,224.44c2.2,2.2,5.09,3.31,7.98,3.31s5.78-1.1,7.98-3.31l224.44-224.44c4.41-4.41,4.41-11.55,0-15.96l-224.44-224.44c-2.2-2.2-5.09-3.31-7.98-3.31h0ZM533.01,314.18l119.31,119.31-119.31,119.31-119.31-119.31,119.31-119.31M533.01,286.93c-2.89,0-5.78,1.1-7.98,3.31l-135.28,135.28c-4.41,4.41-4.41,11.55,0,15.96l135.28,135.28c2.2,2.2,5.09,3.31,7.98,3.31s5.78-1.1,7.98-3.31l135.28-135.28c4.41-4.41,4.41-11.55,0-15.96l-135.28-135.28c-2.2-2.2-5.09-3.31-7.98-3.31h0ZM346.89,206.46c-21.98,0-39.79,17.82-39.79,39.79s17.82,39.79,39.79,39.79,39.79-17.82,39.79-39.79-17.82-39.79-39.79-39.79ZM346.89,579.76c-21.98,0-39.79,17.82-39.79,39.79s17.82,39.79,39.79,39.79,39.79-17.82,39.79-39.79-17.82-39.79-39.79-39.79ZM720.34,206.94c-21.98,0-39.79,17.82-39.79,39.79s17.82,39.79,39.79,39.79,39.79-17.82,39.79-39.79-17.82-39.79-39.79-39.79ZM720.34,580.48c-21.98,0-39.79,17.82-39.79,39.79s17.82,39.79,39.79,39.79,39.79-17.82,39.79-39.79-17.82-39.79-39.79-39.79ZM546.92,387.17h0,0M529.75,426.8c.59.47,1.2.92,1.83,1.33-.27.71-.5,1.44-.7,2.17-.38-.02-.75-.03-1.13-.03s-.75,0-1.13.03c-.2-.73-.44-1.46-.7-2.17.63-.42,1.24-.86,1.83-1.33M529.75,377.07c-1.81,0-3.62,1.04-4.29,3.12l-9.06,27.9c-.3.93-1.17,1.56-2.15,1.56h-29.33c-4.37,0-6.19,5.6-2.65,8.17l23.73,17.24c.79.57,1.12,1.59.82,2.52l-9.06,27.9c-1.03,3.17,1.49,5.93,4.31,5.93.88,0,1.8-.27,2.64-.88l23.73-17.24c.4-.29.86-.43,1.33-.43s.93.14,1.33.43l23.73,17.24c.84.61,1.76.88,2.64.88,2.82,0,5.34-2.76,4.31-5.93l-9.06-27.9c-.3-.93.03-1.95.82-2.52l23.73-17.24c3.54-2.57,1.72-8.17-2.65-8.17h-29.33c-.98,0-1.84-.63-2.15-1.56l-9.06-27.9c-.68-2.08-2.48-3.12-4.29-3.12h0Z"/>
  </g>
</svg>